<svg width="512" height="512" viewBox="0 0 512 512" fill="none" xmlns="http://www.w3.org/2000/svg">
<rect width="512" height="512" rx="24" fill="#6938EF"/>
<path d="M293.046 160.743C260.886 160.742 229.256 160.742 197.592 160.742C196.219 162.422 196.678 164.449 196.675 166.337C196.643 186.856 196.795 207.375 196.575 227.891C196.522 232.742 198.281 234.708 202.941 234.677C236.896 234.45 270.853 235.251 304.807 234.281C309.466 234.148 310.871 232.338 310.833 227.863C310.668 208.407 310.932 188.947 310.657 169.493C310.583 164.264 312.427 162.634 317.382 162.867C323.383 163.149 329.423 163.175 335.416 162.816C340.073 162.537 341.059 164.54 341.045 168.736C340.938 203.051 341.128 237.367 340.888 271.681C340.85 277.192 342.562 278.558 347.822 278.452C363.381 278.14 378.953 278.481 394.516 278.273C399.024 278.213 400.793 279.444 400.691 284.241C400.408 297.678 400.727 311.127 400.548 324.568C400.178 352.285 375.443 380.227 348.189 384.082C344.373 384.622 342.327 383.836 342.728 379.579C342.861 378.176 342.911 376.732 342.739 375.339C341.369 364.248 343.55 356.124 354.482 349.228C367.484 341.025 372.868 326.891 372.475 311.096C372.391 307.709 371.183 306.321 367.768 306.394C360.872 306.542 353.961 306.712 347.078 306.395C342.474 306.182 340.82 307.681 340.901 312.383C341.146 326.706 341.025 341.036 341.026 355.364C341.027 375.528 340.89 395.694 341.086 415.857C341.133 420.704 339.58 422.54 334.674 422.261C328.857 421.929 322.985 421.901 317.173 422.291C311.909 422.644 310.474 420.519 310.671 415.543C311.006 407.066 310.643 398.564 310.803 390.077C310.87 386.507 309.759 385.073 305.965 385.086C271.474 385.196 236.981 385.196 202.489 385.095C197.854 385.081 196.702 387.556 196.694 391.417C196.676 399.907 196.56 408.399 196.702 416.887C196.766 420.689 195.433 422.368 191.47 422.254C184.754 422.061 178.025 422.066 171.308 422.245C167.608 422.344 166.307 420.859 166.363 417.241C166.504 408.223 166.181 399.193 166.481 390.182C166.623 385.915 165.303 384.038 161.06 382.788C137.427 375.822 121.805 360.44 114.378 336.906C112.349 330.478 111.371 323.812 111.363 317.075C111.315 278.337 111.249 239.6 111.386 200.863C111.489 171.783 129.127 147.828 156.652 138.873C164.03 136.473 164.621 136.881 164.633 144.374C164.634 145.258 164.548 146.153 164.65 147.026C166.028 158.717 164.189 168.256 153.442 176.233C143.079 183.925 139.682 196.665 139.579 209.441C139.304 243.577 139.23 277.72 139.596 311.854C139.773 328.329 146.606 341.948 160.246 351.727C161.78 352.827 163.258 354.211 165.47 354.127C167.087 352.297 166.342 350.075 166.343 348.065C166.394 265.992 166.396 183.918 166.407 101.845C166.408 93.6279 166.418 93.626 174.397 93.6197C179.704 93.6155 185.029 93.8926 190.311 93.5362C195.158 93.2092 196.785 94.8427 196.712 99.8058C196.47 116.428 196.665 133.058 196.714 149.684C196.719 151.345 196.874 153.006 198.193 154.66C198.193 151.408 198.192 148.156 198.193 144.904C198.198 136.101 198.198 136.1 206.74 136.099C238.756 136.097 270.773 136.261 302.787 136.013C315.857 135.912 328.9 135.067 341.988 136.051C375.798 138.594 400.551 165.024 400.584 198.93C400.598 213.097 400.598 213.097 386.288 213.095C372.667 213.093 372.667 213.093 372.471 199.934C372.145 178.02 355.898 161.398 333.897 160.878C320.464 160.56 307.017 160.77 293.046 160.743ZM276.593 361.078C284.903 361.037 293.214 360.951 301.525 360.967C309.271 360.981 309.208 361.029 309.33 368.631C309.376 371.523 308.871 374.523 310.356 377.284C310.734 354.878 310.716 332.495 310.753 310.112C310.758 306.809 308.697 306.477 306.173 306.485C299.63 306.503 293.087 306.413 286.546 306.5C283.098 306.545 281.23 305.32 281.288 301.592C281.384 295.405 281.356 289.214 281.258 283.026C281.204 279.662 282.637 278.247 286.033 278.318C292.219 278.447 298.423 278.093 304.594 278.425C309.547 278.691 311.074 276.836 310.899 271.974C310.74 267.573 310.603 264.699 304.807 264.739C271.034 264.97 237.259 264.963 203.485 264.787C198.039 264.759 196.527 266.764 196.565 271.953C196.762 298.476 196.67 325.001 196.668 351.526C196.667 360.886 196.678 360.981 206.037 361.006C229.202 361.067 252.366 361.059 276.593 361.078Z" fill="white"/>
<path d="M335.181 134.259C328.497 134.269 322.306 134.203 316.118 134.323C312.434 134.395 310.628 133.168 310.707 129.112C310.905 118.858 310.85 108.598 310.753 98.3409C310.721 95.0151 311.894 93.5077 315.375 93.5791C322.446 93.7241 329.524 93.7091 336.596 93.5879C339.845 93.5323 340.975 94.9949 340.956 98.0657C340.894 108.323 340.865 118.582 340.988 128.838C341.033 132.642 339.528 134.491 335.181 134.259Z" fill="white"/>
</svg>
